<svg  viewBox="0 0 160 159" fill="none" xmlns="http://www.w3.org/2000/svg">
<path d="M73.6272 2.83046L3.68514 72.715C-0.0750602 76.4721 -0.0750602 82.5405 3.68514 86.2976L73.6272 156.182C77.3874 159.939 83.4608 159.939 87.221 156.182L116.547 126.881C119.914 123.516 119.914 118.06 116.547 114.696C113.179 111.331 107.719 111.331 104.352 114.696L82.1202 136.909C81.1843 137.844 79.7638 137.844 78.8279 136.909L22.9742 81.1012C22.0383 80.166 22.0383 78.7468 22.9742 77.8116L78.8279 22.0038C79.7638 21.0687 81.1843 21.0687 82.1202 22.0038L104.352 44.2171C107.719 47.5819 113.179 47.5819 116.547 44.2171C119.914 40.8524 119.914 35.397 116.547 32.0322L87.2242 2.73382C83.4486 -0.94199 77.373 -0.912232 73.6272 2.83046Z" fill="url(#paint0_linear_1120_6)"/>
<path d="M73.6272 2.83046L3.68514 72.715C-0.0750602 76.4721 -0.0750602 82.5405 3.68514 86.2976L73.6272 156.182C77.3874 159.939 83.4608 159.939 87.221 156.182L116.547 126.881C119.914 123.516 119.914 118.06 116.547 114.696C113.179 111.331 107.719 111.331 104.352 114.696L82.1202 136.909C81.1843 137.844 79.7638 137.844 78.8279 136.909L22.9742 81.1012C22.0383 80.166 22.0383 78.7468 22.9742 77.8116L78.8279 22.0038C81.1583 19.9948 84.9606 15.9256 90.5442 14.9739C94.6939 14.2666 99.2306 15.8234 104.154 19.6441C100.863 16.355 95.2192 10.7182 87.2242 2.73382C83.4486 -0.94199 77.373 -0.912232 73.6272 2.83046Z" fill="url(#paint1_linear_1120_6)"/>
<path d="M123.317 108.196C126.684 111.561 132.144 111.561 135.511 108.196L157.144 86.5821C160.904 82.825 160.904 76.7566 157.144 72.9999L135.323 51.2745C131.948 47.9138 126.486 47.9186 123.117 51.2854C119.749 54.6501 119.749 60.1055 123.117 63.4703L137.855 78.1959C138.79 79.1311 138.79 80.5503 137.855 81.4855L123.317 96.0115C119.949 99.3762 119.949 104.832 123.317 108.196Z" fill="url(#paint2_linear_1120_6)"/>
<path d="M80.774 98.7246C91.2036 98.7246 99.6584 90.2767 99.6584 79.8557C99.6584 69.4348 91.2036 60.9869 80.774 60.9869C70.3445 60.9869 61.8896 69.4348 61.8896 79.8557C61.8896 90.2767 70.3445 98.7246 80.774 98.7246Z" fill="url(#paint3_linear_1120_6)"/>
<defs>
<linearGradient id="paint0_linear_1120_6" x1="74.2745" y1="4.25175e-06" x2="140.74" y2="40.5893" gradientUnits="userSpaceOnUse">
<stop stop-color="#4285EB"/>
<stop offset="1" stop-color="#2EC7FF"/>
</linearGradient>
<linearGradient id="paint1_linear_1120_6" x1="83.1895" y1="-1.11024e-06" x2="50.3617" y2="169.663" gradientUnits="userSpaceOnUse">
<stop stop-color="#29CDFF"/>
<stop offset="0.378601" stop-color="#148EFF"/>
<stop offset="1" stop-color="#0A60FF"/>
</linearGradient>
<linearGradient id="paint2_linear_1120_6" x1="148.03" y1="40.7178" x2="105.316" y2="107.519" gradientUnits="userSpaceOnUse">
<stop stop-color="#FA816E"/>
<stop offset="0.414726" stop-color="#F74A5C"/>
<stop offset="1" stop-color="#F51D2C"/>
</linearGradient>
<linearGradient id="paint3_linear_1120_6" x1="87.6207" y1="47.5181" x2="73.4085" y2="104.369" gradientUnits="userSpaceOnUse">
<stop stop-color="#FA8E7D"/>
<stop offset="0.512635" stop-color="#F74A5C"/>
<stop offset="1" stop-color="#F51D2C"/>
</linearGradient>
</defs>
</svg>
