<svg  viewBox="0 0 166 166" fill="none" xmlns="http://www.w3.org/2000/svg">
<path d="M49.0928 76.5304C46.5866 73.7737 42.8276 74.0238 41.0733 77.2818L0.473417 158.731C-1.03026 161.989 1.22575 165.749 4.73433 165.749H61.3726C63.1269 165.749 64.8811 164.746 65.6329 162.992C77.913 137.68 70.3949 99.3362 49.0928 76.5304Z" fill="url(#paint0_linear_1117_12)"/>
<path d="M78.9202 2.60081C56.1144 38.6891 57.6181 78.5362 72.6549 108.61C87.6917 138.683 99.2203 161.49 99.9721 163.244C100.724 164.999 102.478 166 104.232 166H160.871C164.379 166 166.886 162.241 165.132 158.983C165.132 158.983 88.9446 6.61086 86.9397 2.85166C85.436 -0.907538 81.1757 -0.907782 78.9202 2.60081Z" fill="#0052CC"/>
<defs>
<linearGradient id="paint0_linear_1117_12" x1="71.3344" y1="89.0269" x2="28.4013" y2="163.39" gradientUnits="userSpaceOnUse">
<stop stop-color="#0052CC" stop-opacity="0.4"/>
<stop offset="0.9228" stop-color="#0052CC"/>
</linearGradient>
</defs>
</svg>
