<svg  viewBox="0 0 200 160" fill="none" xmlns="http://www.w3.org/2000/svg">
<g clip-path="url(#clip0_1117_35)">
<path d="M22.0629 20.8281C21.6855 9.99219 30.1281 0 41.5398 0L158.475 0C169.886 0 178.329 9.99219 177.952 20.8281C177.589 31.2371 178.06 44.7207 181.453 55.7148C184.857 66.743 190.598 73.7137 200 74.6094V84.7656C190.598 85.6613 184.857 92.632 181.453 103.66C178.06 114.654 177.589 128.138 177.952 138.547C178.329 149.383 169.886 159.375 158.475 159.375H41.5398C30.1281 159.375 21.6855 149.383 22.0633 138.547C22.4254 128.138 21.9547 114.654 18.5609 103.66C15.157 92.632 9.40234 85.6613 0 84.7656L0 74.6094C9.40195 73.7137 15.157 66.743 18.5609 55.7148C21.9547 44.7207 22.4254 31.2371 22.0629 20.8281Z" fill="url(#paint0_linear_1117_35)"/>
<g filter="url(#filter0_d_1117_35)">
<path d="M104.337 122.054C122.813 122.054 133.946 113.007 133.946 98.0867C133.946 86.8082 126.002 78.643 114.207 77.3504V76.8805C122.873 75.4707 129.673 67.423 129.673 58.4355C129.673 45.6297 119.563 37.2879 104.157 37.2879H69.4927V122.054H104.337ZM82.9731 48.0379H100.907C110.656 48.0379 116.193 52.3848 116.193 60.2562C116.193 68.6566 109.754 73.3559 98.0786 73.3559H82.9731V48.0379ZM82.9731 111.304V83.4012H100.786C113.545 83.4012 120.165 88.1004 120.165 97.2645C120.165 106.428 113.725 111.304 101.569 111.304H82.9731Z" fill="url(#paint1_linear_1117_35)"/>
<path d="M104.337 122.054C122.813 122.054 133.946 113.007 133.946 98.0867C133.946 86.8082 126.002 78.643 114.207 77.3504V76.8805C122.873 75.4707 129.673 67.423 129.673 58.4355C129.673 45.6297 119.563 37.2879 104.157 37.2879H69.4927V122.054H104.337ZM82.9731 48.0379H100.907C110.656 48.0379 116.193 52.3848 116.193 60.2562C116.193 68.6566 109.754 73.3559 98.0786 73.3559H82.9731V48.0379ZM82.9731 111.304V83.4012H100.786C113.545 83.4012 120.165 88.1004 120.165 97.2645C120.165 106.428 113.725 111.304 101.569 111.304H82.9731Z" stroke="white" stroke-width="0.1"/>
</g>
</g>
<defs>
<filter id="filter0_d_1117_35" x="53.4426" y="25.2379" width="96.5532" height="116.866" filterUnits="userSpaceOnUse" color-interpolation-filters="sRGB">
<feFlood flood-opacity="0" result="BackgroundImageFix"/>
<feColorMatrix in="SourceAlpha" type="matrix" values="0 0 0 0 0 0 0 0 0 0 0 0 0 0 0 0 0 0 127 0" result="hardAlpha"/>
<feOffset dy="4"/>
<feGaussianBlur stdDeviation="8"/>
<feColorMatrix type="matrix" values="0 0 0 0 0 0 0 0 0 0 0 0 0 0 0 0 0 0 0.15 0"/>
<feBlend mode="normal" in2="BackgroundImageFix" result="effect1_dropShadow_1117_35"/>
<feBlend mode="normal" in="SourceGraphic" in2="effect1_dropShadow_1117_35" result="shape"/>
</filter>
<linearGradient id="paint0_linear_1117_35" x1="29.7184" y1="4.21797" x2="204.484" y2="142.947" gradientUnits="userSpaceOnUse">
<stop stop-color="#9013FE"/>
<stop offset="1" stop-color="#6610F2"/>
</linearGradient>
<linearGradient id="paint1_linear_1117_35" x1="75.5892" y1="42.8672" x2="114.654" y2="108.934" gradientUnits="userSpaceOnUse">
<stop stop-color="white"/>
<stop offset="1" stop-color="#F1E5FC"/>
</linearGradient>
<clipPath id="clip0_1117_35">
<rect width="200" height="159.375" fill="white"/>
</clipPath>
</defs>
</svg>
