<svg width="240" height="240" viewBox="0 0 240 240" fill="none" xmlns="http://www.w3.org/2000/svg">
<g clip-path="url(#clip0_63_47)">
<path d="M120.007 13.6826C90.6589 13.6826 64.0804 25.5869 44.8373 44.8447C25.5868 64.0586 13.6898 90.6517 13.6898 120.015C13.6898 149.356 25.5868 175.931 44.8373 195.152C64.0804 214.384 90.6589 226.31 120.007 226.31C149.363 226.31 175.956 214.384 195.17 195.152C214.413 175.931 226.284 149.356 226.284 120.015C226.284 90.6517 214.413 64.0586 195.17 44.8447C175.956 25.5869 149.363 13.6826 120.007 13.6826ZM120.007 0.800071C185.831 0.800071 239.2 54.1768 239.2 120.015C239.2 185.831 185.831 239.2 120.007 239.2C54.1914 239.2 0.799988 185.831 0.799988 120.015C0.799988 54.1768 54.1914 0.800071 120.007 0.800071Z" fill="#007DB8"/>
<path d="M63.6309 119.043C63.6309 112.097 59.0216 108.15 52.4961 108.15H48.5023V129.944H52.3825C58.45 129.944 63.6309 126.646 63.6309 119.043ZM134.672 126.884L105.25 150.052L78.36 128.881C74.4799 138.202 65.1038 144.677 54.3061 144.677H31.2927V93.4103H54.3061C66.3715 93.4103 75.0661 101.083 78.3527 109.257L105.25 88.1085L115.212 95.9494L90.5611 115.325L95.2986 119.032L119.942 99.6684L129.919 107.487L105.272 126.884L110.002 130.6L134.672 111.199V93.4103H152.555V129.713H170.395V144.739H134.672V126.884ZM193.05 129.72H210.882V144.739H175.148V93.4103H193.05V129.72Z" fill="#007DB8"/>
</g>
<defs>
<clipPath id="clip0_63_47">
<rect width="240" height="240" fill="white"/>
</clipPath>
</defs>
</svg>
