<svg width="172" height="172" viewBox="0 0 172 172" fill="none" xmlns="http://www.w3.org/2000/svg">
<path d="M82.56 172C67.9625 172 53.9629 166.201 43.6409 155.879C33.3189 145.557 27.52 131.558 27.52 116.96C27.52 102.362 33.3189 88.3628 43.6409 78.0408C53.9629 67.7188 67.9625 61.92 82.56 61.92V172ZM82.56 0H27.52V55.04H82.56V0ZM116.96 55.04C124.259 55.04 131.259 52.1406 136.42 46.9796C141.581 41.8186 144.48 34.8188 144.48 27.52C144.48 20.2212 141.581 13.2214 136.42 8.06042C131.259 2.89942 124.259 0 116.96 0C109.661 0 102.661 2.89942 97.5004 8.06042C92.3394 13.2214 89.44 20.2212 89.44 27.52C89.44 34.8188 92.3394 41.8186 97.5004 46.9796C102.661 52.1406 109.661 55.04 116.96 55.04Z" fill="black"/>
</svg>
