<svg width="172" height="172" viewBox="0 0 172 172" fill="none" xmlns="http://www.w3.org/2000/svg">
<path d="M81.06 170.479C67.4042 170.097 54.3881 164.505 44.7015 154.818C34.6608 144.778 29.02 131.16 29.02 116.96C29.02 102.76 34.6608 89.1422 44.7015 79.1015C54.3881 69.4149 67.4042 63.8233 81.06 63.441V170.479ZM29.02 1.5H81.06V53.54H29.02V1.5ZM135.359 45.9189C130.479 50.7986 123.861 53.54 116.96 53.54C110.059 53.54 103.441 50.7986 98.5611 45.9189C93.6814 41.0392 90.94 34.4209 90.94 27.52C90.94 20.6191 93.6814 14.0008 98.5611 9.12108C103.441 4.24139 110.059 1.5 116.96 1.5C123.861 1.5 130.479 4.24139 135.359 9.12108C140.239 14.0008 142.98 20.6191 142.98 27.52C142.98 34.4209 140.239 41.0392 135.359 45.9189Z" stroke="black" stroke-width="3"/>
</svg>
