<svg  viewBox="0 0 160 159" fill="none" xmlns="http://www.w3.org/2000/svg">
<path d="M5.74446 25.0194C0.8125 34.6989 0.8125 47.3701 0.8125 72.7125V86.2875C0.8125 111.63 0.8125 124.301 5.74446 133.981C10.0827 142.495 17.0051 149.417 25.5194 153.756C35.1989 158.688 47.8701 158.688 73.2125 158.688H86.7875C112.13 158.688 124.801 158.688 134.481 153.756C142.995 149.417 149.917 142.495 154.256 133.981C159.188 124.301 159.188 111.63 159.188 86.2875V72.7125C159.188 47.3701 159.188 34.6989 154.256 25.0194C149.917 16.5051 142.995 9.58273 134.481 5.24446C124.801 0.3125 112.13 0.3125 86.7875 0.3125H73.2125C47.8701 0.3125 35.1989 0.3125 25.5194 5.24446C17.0051 9.58273 10.0827 16.5051 5.74446 25.0194Z" fill="url(#paint0_linear_1127_2)"/>
<path d="M2.31267 35.8311C0.8125 44.3566 0.8125 55.6689 0.8125 72.7123V86.2873C0.8125 111.63 0.8125 124.301 5.74446 133.98C10.0827 142.495 17.0051 149.417 25.5194 153.755C35.1989 158.687 47.8701 158.687 73.2125 158.687H86.7875C112.13 158.687 124.801 158.687 134.481 153.755C142.995 149.417 149.917 142.495 154.256 133.98C159.188 124.301 159.188 111.63 159.188 86.2872V72.7122C159.188 47.3699 159.188 34.6987 154.256 25.0192C150.068 16.8011 143.473 10.0661 135.363 5.70638L2.31267 35.8311Z" fill="url(#paint1_linear_1127_2)"/>
<path d="M157.549 123.924C156.822 127.746 155.772 131.005 154.256 133.98C149.917 142.495 142.995 149.417 134.481 153.755C125.091 158.54 112.886 158.683 89.029 158.687H80.3315V140.795L157.549 123.924Z" fill="url(#paint2_linear_1127_2)"/>
<path d="M86.7873 0.3125H73.2123C68.282 0.3125 63.8312 0.3125 59.7888 0.348817V22.7707L135.349 5.69868C135.061 5.54427 134.772 5.39285 134.48 5.24446C129.107 2.50646 122.811 1.28847 113.937 0.746657C106.827 0.3125 98.0608 0.3125 86.7873 0.3125Z" fill="url(#paint3_linear_1127_2)"/>
<path d="M159.188 87.268C159.187 104.268 159.157 115.474 157.549 123.924L130.694 129.792V89.7708L159.188 83.1442V87.268Z" fill="url(#paint4_linear_1127_2)"/>
<path fill-rule="evenodd" clip-rule="evenodd" d="M74.0094 64.6687C74.0094 61.0336 76.9815 59.6354 81.9039 59.6354C88.9625 59.6354 97.8786 61.7792 104.937 65.6008V43.6967C97.2285 40.6208 89.6127 39.4091 81.9039 39.4091C63.05 39.4091 50.5117 49.2893 50.5117 65.7872C50.5117 91.5129 85.8047 87.4117 85.8047 98.5035C85.8047 102.791 82.0897 104.189 76.8886 104.189C69.1799 104.189 59.335 101.02 51.5334 96.7326V118.916C60.1709 122.645 68.9012 124.229 76.8886 124.229C96.2069 124.229 109.488 114.629 109.488 97.9443C109.395 70.168 74.0094 75.1081 74.0094 64.6687Z" fill="white"/>
<defs>
<linearGradient id="paint0_linear_1127_2" x1="0.8125" y1="0.3125" x2="52.8311" y2="37.09" gradientUnits="userSpaceOnUse">
<stop stop-color="#392993"/>
<stop offset="1" stop-color="#4B47B9"/>
</linearGradient>
<linearGradient id="paint1_linear_1127_2" x1="6.77642" y1="37.4991" x2="121.611" y2="132.221" gradientUnits="userSpaceOnUse">
<stop stop-color="#594BB9"/>
<stop offset="1" stop-color="#60A8F2"/>
</linearGradient>
<linearGradient id="paint2_linear_1127_2" x1="80.3315" y1="141.458" x2="159.188" y2="158.687" gradientUnits="userSpaceOnUse">
<stop stop-color="#61A2EF"/>
<stop offset="1" stop-color="#58E6FD"/>
</linearGradient>
<linearGradient id="paint3_linear_1127_2" x1="59.7888" y1="11.5777" x2="159.187" y2="0.312503" gradientUnits="userSpaceOnUse">
<stop stop-color="#534EBE"/>
<stop offset="1" stop-color="#6875E2"/>
</linearGradient>
<linearGradient id="paint4_linear_1127_2" x1="130.694" y1="90.1021" x2="159.188" y2="124.229" gradientUnits="userSpaceOnUse">
<stop stop-color="#71A5F3"/>
<stop offset="1" stop-color="#6CC3FA"/>
</linearGradient>
</defs>
</svg>
