<svg  viewBox="0 0 218 131" fill="none" xmlns="http://www.w3.org/2000/svg">
<path d="M108.844 0C79.8193 0 61.6785 14.5556 54.4222 43.6667C65.3067 29.1111 78.0052 23.6528 92.5178 27.2917C100.798 29.3699 106.716 35.3943 113.267 42.0615C123.938 52.9256 136.289 65.5 163.267 65.5C192.292 65.5 210.433 50.9444 217.689 21.8333C206.804 36.3889 194.106 41.8472 179.593 38.2083C171.313 36.1301 165.395 30.1057 158.844 23.4385C148.174 12.5744 135.822 0 108.844 0ZM54.4222 65.5C25.397 65.5 7.2563 80.0555 0 109.167C10.8844 94.6111 23.583 89.1528 38.0956 92.7917C46.3758 94.8699 52.2937 100.894 58.8445 107.562C69.5153 118.426 81.8672 131 108.844 131C137.87 131 156.01 116.444 163.267 87.3333C152.382 101.889 139.684 107.347 125.171 103.708C116.891 101.63 110.973 95.6057 104.422 88.9385C93.7514 78.0744 81.3995 65.5 54.4222 65.5Z" fill="#14B4C6"/>
</svg>
