<svg width="241" height="240" viewBox="0 0 241 240" fill="none" xmlns="http://www.w3.org/2000/svg">
<g clip-path="url(#clip0_61_23)">
<path d="M132.595 0H183.048C188.317 0.0980716 193.573 0.560844 198.778 1.385C203.737 2.24694 208.539 3.84758 213.024 6.13355C217.528 8.39259 221.637 11.3659 225.192 14.9382C228.74 18.4758 231.711 22.5484 233.996 27.0074C236.251 31.5313 237.818 36.366 238.646 41.352C239.515 46.5181 239.978 51.7443 240.031 56.9827C240.031 59.4559 240.031 61.9291 240.031 64.4023V175.499C240.031 177.972 240.031 180.445 240.031 182.918C239.974 188.189 239.511 193.448 238.646 198.648C237.818 203.603 236.251 208.405 233.996 212.894C229.43 221.949 222.079 229.3 213.024 233.866C208.535 236.121 203.733 237.688 198.778 238.516C193.579 239.389 188.32 239.852 183.048 239.901H57.2116C51.9732 239.848 46.7471 239.385 41.581 238.516C36.5899 237.708 31.7522 236.14 27.2364 233.866C22.7774 231.581 18.7047 228.61 15.1671 225.062C11.5949 221.507 8.62153 217.398 6.36249 212.894C4.07652 208.409 2.47587 203.607 1.61393 198.648C0.765231 193.444 0.269458 188.189 0.130005 182.918C0.130005 180.445 0.130005 177.972 0.130005 175.499V64.5012C0.130005 62.028 0.130005 59.5548 0.130005 57.0816C0.265353 51.8435 0.761166 46.6209 1.61393 41.4509C2.47499 36.46 4.07544 31.6253 6.36249 27.1063C10.9757 18.1435 18.2735 10.8457 27.2364 6.23248C31.7465 3.92434 36.5844 2.3228 41.581 1.48392C46.7509 0.631162 51.9735 0.135348 57.2116 0L132.595 0Z" fill="url(#paint0_linear_61_23)"/>
<path d="M67.599 90.1236C67.3527 85.0696 69.052 80.1133 72.3476 76.2737C75.673 72.2829 80.4345 69.7601 85.604 69.2498C86.0084 74.4576 84.337 79.614 80.9544 83.5944C79.3986 85.6563 77.3784 87.3222 75.0578 88.4567C72.7372 89.5912 70.1818 90.1623 67.599 90.1236ZM92.3311 117.131C92.4017 113.675 93.3459 110.294 95.0756 107.301C96.8054 104.308 99.2646 101.802 102.224 100.016C100.355 97.3698 97.9016 95.1896 95.0534 93.6454C92.2053 92.1013 89.0394 91.2346 85.8018 91.1129C78.3822 91.1129 72.1497 95.3668 68.5883 95.3668C65.0269 95.3668 59.6848 91.3108 53.848 91.4097C50.0399 91.5321 46.3277 92.6343 43.0699 94.6098C39.812 96.5853 37.1185 99.3674 35.2495 102.688C27.3352 116.34 33.172 136.719 40.8884 147.799C44.6477 153.339 49.1984 159.373 55.1341 159.176C61.0698 158.978 62.9494 155.515 69.7755 155.515C76.6015 155.515 78.5801 159.176 84.5158 159.077C90.4515 158.978 94.4086 153.537 98.3657 147.997C101.025 144.102 103.092 139.835 104.499 135.334C100.905 133.834 97.8324 131.307 95.6678 128.069C93.5032 124.831 92.3425 121.026 92.3311 117.131ZM196.008 95.6636L180.377 146.117L164.846 95.6636H151.391L173.551 158.285H186.808L208.968 95.4657L196.008 95.6636ZM132.595 80.6265H120.13V95.6636H110.93V105.556H120.13V142.061C120.13 154.13 124.977 158.978 137.442 158.978C139.833 158.962 142.217 158.731 144.565 158.285V148.392H140.311C134.969 148.392 132.595 145.82 132.595 140.379V105.556H144.664V95.6636H132.595V80.6265Z" fill="#F9F9F9"/>
</g>
<defs>
<linearGradient id="paint0_linear_61_23" x1="120.13" y1="238.219" x2="120.13" y2="0" gradientUnits="userSpaceOnUse">
<stop stop-color="#111111"/>
<stop offset="1" stop-color="#333333"/>
</linearGradient>
<clipPath id="clip0_61_23">
<rect width="240" height="240" fill="white" transform="translate(0.130005)"/>
</clipPath>
</defs>
</svg>
