<svg width="400" height="404" viewBox="0 0 400 404" fill="none" xmlns="http://www.w3.org/2000/svg">
<path d="M316.511 147.487C350.695 145.239 382.132 167.1 400 197.627C398.191 186.322 395.089 174.919 390.081 163.875C370.048 118.459 322.294 93.2104 274.055 96.0122C302.553 76.823 340.581 79.9177 371.212 97.3477C364.039 88.4535 355.703 80.146 345.88 73.1088C306.01 43.8525 252.149 46.1002 211.729 72.8153C226.882 41.8323 261.389 25.3473 296.543 24.989C285.945 20.9165 274.572 17.9192 262.585 16.7789C213.57 11.5662 168.013 40.6268 146.268 84.1855C144.039 49.7165 165.719 18.0164 195.994 0C184.782 1.82445 173.473 4.95229 162.52 10.0021C117.48 30.2013 92.4397 78.3542 95.2184 126.995C76.1877 98.2603 79.2568 59.9141 96.5428 29.0288C87.7221 36.2614 79.4832 44.6664 72.5042 54.5705C43.4897 94.7735 45.7188 149.083 72.2131 189.84C41.4862 174.561 25.1374 139.766 24.782 104.319C20.7433 115.005 17.7707 126.473 16.6398 138.56C11.4702 187.983 40.2911 233.92 83.4897 255.846C49.3056 258.094 17.8675 236.234 0 205.707C1.80937 217.012 4.91137 228.414 9.91944 239.459C29.9517 284.874 77.7059 310.124 125.945 307.322C97.4474 326.511 59.4185 323.416 28.7885 305.986C35.9613 314.881 44.2972 323.188 54.1195 330.225C93.9903 359.482 147.851 357.234 188.271 330.519C173.118 361.502 138.611 377.987 103.457 378.345C114.055 382.418 125.428 385.415 137.415 386.555C186.43 391.768 231.987 362.707 253.732 319.149C255.961 353.618 234.281 385.317 204.006 403.333C215.218 401.509 226.527 398.382 237.48 393.332C282.52 373.133 307.561 324.98 304.782 276.339C323.813 305.074 320.743 343.42 303.457 374.305C312.278 367.073 320.517 358.667 327.496 348.763C356.51 308.56 354.281 254.25 327.787 213.493C358.514 228.773 374.863 263.568 375.218 299.014C379.257 288.328 382.229 276.86 383.36 264.773C388.53 215.35 359.709 169.413 316.511 147.487Z" fill="#FBB934"/>
</svg>
