<svg width="271" height="228" viewBox="0 0 271 228" fill="none" xmlns="http://www.w3.org/2000/svg">
<path d="M199.786 0C110.651 0 0 92.2091 0 168.543C0 207.992 30.2289 227.966 70.1861 227.966C99.3905 227.966 135.25 217.204 169.567 196.713V44.0555C160.346 59.9407 117.315 122.945 82.9882 156.755C65.5709 174.173 51.2273 181.345 39.4402 181.345C26.1211 181.345 19.4568 172.124 19.4568 158.805C19.4568 96.8148 123.453 16.9002 192.605 16.9002C220.785 16.9002 239.227 29.7118 239.227 53.7838C239.227 76.3238 223.858 104.504 198.245 130.117V177.246C243.325 141.387 270.48 95.7902 270.48 58.9066C269.963 19.9739 239.744 0 199.786 0Z" fill="#3643BA"/>
</svg>
